<svg id="visual" viewBox="0 0 900 300" width="900" height="300"
    xmlns="http://www.w3.org/2000/svg"
    xmlns:xlink="http://www.w3.org/1999/xlink" version="1.1">
    <rect x="0" y="0" width="900" height="300" fill="#001220"></rect>
    <path d="M0 207L21.5 204.8C43 202.7 86 198.3 128.8 194.5C171.7 190.7 214.3 187.3 257.2 189.3C300 191.3 343 198.7 385.8 198.2C428.7 197.7 471.3 189.3 514.2 185.8C557 182.3 600 183.7 642.8 184C685.7 184.3 728.3 183.7 771.2 185C814 186.3 857 189.7 878.5 191.3L900 193L900 301L878.5 301C857 301 814 301 771.2 301C728.3 301 685.7 301 642.8 301C600 301 557 301 514.2 301C471.3 301 428.7 301 385.8 301C343 301 300 301 257.2 301C214.3 301 171.7 301 128.8 301C86 301 43 301 21.5 301L0 301Z" fill="#e7ebf0"></path>
    <path d="M0 212L21.5 214.7C43 217.3 86 222.7 128.8 225.5C171.7 228.3 214.3 228.7 257.2 226.2C300 223.7 343 218.3 385.8 218C428.7 217.7 471.3 222.3 514.2 223.2C557 224 600 221 642.8 217C685.7 213 728.3 208 771.2 206.2C814 204.3 857 205.7 878.5 206.3L900 207L900 301L878.5 301C857 301 814 301 771.2 301C728.3 301 685.7 301 642.8 301C600 301 557 301 514.2 301C471.3 301 428.7 301 385.8 301C343 301 300 301 257.2 301C214.3 301 171.7 301 128.8 301C86 301 43 301 21.5 301L0 301Z" fill="#939ba4"></path>
    <path d="M0 253L21.5 252.2C43 251.3 86 249.7 128.8 249.5C171.7 249.3 214.3 250.7 257.2 249.8C300 249 343 246 385.8 243.7C428.7 241.3 471.3 239.7 514.2 241.2C557 242.7 600 247.3 642.8 247.7C685.7 248 728.3 244 771.2 244C814 244 857 248 878.5 250L900 252L900 301L878.5 301C857 301 814 301 771.2 301C728.3 301 685.7 301 642.8 301C600 301 557 301 514.2 301C471.3 301 428.7 301 385.8 301C343 301 300 301 257.2 301C214.3 301 171.7 301 128.8 301C86 301 43 301 21.5 301L0 301Z" fill="#47515e"></path>
    <path d="M0 259L21.5 259.5C43 260 86 261 128.8 260.7C171.7 260.3 214.3 258.7 257.2 261.5C300 264.3 343 271.7 385.8 275.3C428.7 279 471.3 279 514.2 276.7C557 274.3 600 269.7 642.8 269.2C685.7 268.7 728.3 272.3 771.2 271.2C814 270 857 264 878.5 261L900 258L900 301L878.5 301C857 301 814 301 771.2 301C728.3 301 685.7 301 642.8 301C600 301 557 301 514.2 301C471.3 301 428.7 301 385.8 301C343 301 300 301 257.2 301C214.3 301 171.7 301 128.8 301C86 301 43 301 21.5 301L0 301Z" fill="#001220"></path>
</svg>