<?xml version="1.0" standalone="no"?>
<!DOCTYPE svg PUBLIC "-//W3C//DTD SVG 20010904//EN"
 "http://www.w3.org/TR/2001/REC-SVG-20010904/DTD/svg10.dtd">
<svg version="1.0" xmlns="http://www.w3.org/2000/svg"
 width="424.000000pt" height="424.000000pt" viewBox="0 0 424.000000 424.000000"
 preserveAspectRatio="xMidYMid meet">
<metadata>
Created by potrace 1.11, written by Peter Selinger 2001-2013
</metadata>
<g transform="translate(0.000000,424.000000) scale(0.100000,-0.100000)"
fill="#000000" stroke="none">
<path d="M1880 4232 c-50 -4 -129 -31 -174 -59 -78 -50 -168 -162 -180 -227
-2 -11 -7 -34 -11 -49 -11 -42 -12 -107 -2 -152 5 -22 10 -48 13 -59 5 -25 41
-94 66 -125 l19 -25 -34 -31 c-19 -16 -79 -66 -132 -110 -53 -44 -107 -88
-119 -98 -11 -10 -36 -31 -55 -45 -19 -15 -39 -32 -45 -38 -6 -5 -49 -41 -96
-80 -99 -81 -128 -105 -144 -120 -24 -23 -66 -46 -66 -36 0 6 -21 20 -46 32
-145 71 -315 -31 -316 -188 0 -31 6 -74 15 -94 21 -49 83 -106 132 -120 22 -6
41 -12 42 -13 2 -1 -8 -58 -22 -126 -13 -68 -26 -135 -29 -149 -2 -14 -16 -83
-30 -154 -14 -72 -26 -131 -26 -132 0 -1 -33 -2 -73 -2 -117 -1 -210 -42 -294
-129 -52 -55 -86 -114 -102 -179 -13 -51 -17 -186 -6 -204 4 -6 8 -21 11 -34
11 -65 102 -179 182 -229 78 -50 218 -73 312 -52 43 9 134 56 175 89 l30 25
45 -42 c25 -23 90 -83 145 -132 55 -49 105 -94 111 -100 34 -32 192 -176 211
-191 l23 -19 -26 -51 c-51 -103 -29 -231 55 -313 132 -128 358 -83 433 87 10
23 26 42 34 42 13 0 183 -24 244 -35 14 -3 88 -14 165 -25 77 -11 153 -23 170
-26 16 -3 75 -12 130 -20 221 -33 226 -33 237 -40 5 -4 8 -18 5 -31 -6 -34 16
-136 42 -195 39 -85 159 -188 253 -216 13 -4 73 -7 133 -6 101 0 115 2 169 29
64 31 140 100 178 161 80 126 80 312 0 438 -48 77 -145 154 -224 179 -13 5
-15 12 -8 39 4 18 20 83 34 143 14 61 30 124 35 140 11 35 38 149 45 185 2 14
16 72 31 130 30 121 33 133 34 141 1 3 26 6 56 7 237 6 346 295 175 462 -37
36 -106 69 -152 72 -43 2 -44 4 -53 103 -9 102 -15 166 -20 200 -2 17 -7 57
-10 90 -3 33 -8 74 -10 90 -2 17 -7 64 -10 106 l-6 76 39 1 c54 2 172 44 239
84 111 67 223 221 252 348 15 66 13 217 -4 283 -13 51 -42 114 -78 172 -6 11
-42 50 -79 87 -133 133 -313 187 -503 152 -170 -32 -324 -150 -404 -312 -25
-51 -40 -72 -51 -69 -45 14 -252 72 -495 139 l-120 33 -1 81 c-3 135 -40 230
-124 314 -91 91 -209 133 -340 122z m578 -587 c70 -19 141 -39 157 -44 17 -5
82 -24 145 -41 229 -64 205 -53 202 -91 -7 -97 -7 -148 0 -189 5 -25 10 -55
13 -68 6 -34 53 -132 80 -168 14 -18 22 -39 19 -46 -3 -7 -33 -37 -67 -65 -34
-29 -87 -75 -117 -103 -51 -46 -80 -61 -80 -42 0 12 -79 42 -118 44 -20 1 -56
-1 -78 -6 l-42 -7 -162 258 c-89 142 -167 267 -173 278 -7 11 -21 34 -33 50
-38 56 -37 61 21 121 30 31 64 78 76 105 13 27 24 49 27 49 2 0 61 -16 130
-35z m-787 -163 c42 -32 96 -60 129 -67 31 -7 32 -8 26 -53 -3 -26 -8 -60 -11
-77 -3 -16 -8 -41 -10 -55 -3 -14 -10 -54 -16 -90 -5 -36 -14 -83 -19 -105 -4
-22 -11 -60 -14 -85 -3 -25 -8 -56 -11 -70 -3 -14 -8 -41 -11 -60 -3 -19 -9
-60 -15 -90 -15 -83 -37 -211 -43 -250 -3 -19 -8 -46 -11 -60 -3 -14 -8 -39
-11 -56 -5 -29 -9 -32 -50 -32 -132 -3 -245 -124 -246 -264 0 -35 2 -69 4 -77
2 -10 -22 -25 -72 -47 -41 -18 -95 -42 -120 -53 -146 -63 -211 -91 -215 -91
-3 0 -11 13 -19 29 -35 67 -142 155 -218 180 -42 14 -42 12 -28 78 5 26 12 59
14 73 3 14 7 36 11 50 3 14 12 63 21 110 9 47 18 93 20 103 2 9 6 27 9 40 5
23 8 38 20 100 5 27 12 37 26 37 57 0 124 50 160 119 27 52 29 134 5 182 -8
17 -13 35 -10 42 3 7 66 62 140 122 75 61 143 117 152 125 9 9 54 46 100 83
46 36 104 84 130 106 120 102 144 121 151 121 5 0 19 -8 32 -18z m500 -99 c23
-38 61 -97 84 -133 36 -56 108 -170 148 -234 7 -11 40 -64 74 -118 55 -86 61
-101 51 -118 -7 -11 -15 -20 -19 -20 -3 0 -16 -21 -28 -46 -30 -59 -31 -138
-3 -194 l20 -41 -47 -21 c-25 -11 -68 -31 -96 -43 -480 -217 -505 -227 -505
-206 0 19 -73 82 -118 103 -38 17 -43 22 -38 46 7 35 15 78 22 122 9 62 12 73
28 160 15 82 20 114 31 183 3 17 7 43 10 57 3 14 7 41 10 60 3 19 15 87 26
150 22 124 21 119 39 230 l12 75 65 2 c62 2 157 26 178 44 5 5 10 9 11 9 1 0
21 -30 45 -67z m1089 -523 c68 -34 122 -50 222 -64 28 -4 24 11 42 -171 8 -73
27 -250 31 -285 4 -35 14 -130 19 -181 2 -22 -4 -28 -44 -42 -25 -9 -58 -28
-74 -42 -16 -14 -30 -25 -32 -25 -2 0 -123 94 -189 147 -5 5 -30 24 -55 43
-24 19 -49 40 -55 45 -11 10 -26 21 -149 118 -123 97 -118 90 -99 128 22 44
20 130 -5 179 l-19 38 40 33 c22 18 45 38 52 45 6 7 46 42 89 78 l77 65 55
-44 c30 -25 72 -54 94 -65z m-268 -520 c84 -67 160 -126 168 -133 8 -7 65 -52
127 -100 l112 -88 -21 -47 c-22 -51 -27 -149 -10 -193 9 -24 7 -28 -43 -57
-29 -18 -57 -32 -61 -32 -4 0 -24 -11 -43 -24 -20 -13 -107 -62 -194 -110 -87
-48 -173 -95 -190 -105 -18 -10 -54 -30 -80 -45 l-48 -26 -46 39 c-24 22 -60
45 -79 51 -27 9 -33 16 -29 33 2 12 7 47 10 77 8 78 14 125 25 205 10 74 11
81 35 275 8 69 17 139 20 155 2 17 6 53 10 80 11 88 15 101 33 102 44 4 73 13
108 37 22 13 40 25 41 25 2 1 71 -53 155 -119z m-367 30 c-4 -25 -9 -61 -20
-155 -4 -27 -8 -61 -10 -75 -4 -22 -8 -60 -31 -255 -3 -27 -7 -52 -9 -55 -1
-3 -6 -36 -9 -75 -4 -38 -9 -77 -11 -85 -2 -8 -7 -42 -10 -75 -9 -101 -14
-115 -38 -111 -27 4 -89 -17 -126 -43 l-28 -20 -25 27 c-13 15 -67 66 -119
114 -88 80 -125 116 -287 270 -34 34 -61 63 -59 67 45 83 61 166 44 231 -6 22
-2 27 30 42 21 9 74 33 118 53 165 76 214 98 350 159 l140 63 53 -26 c46 -23
52 -29 47 -51z m-1215 -465 c33 -46 105 -94 151 -101 21 -4 39 -11 41 -18 2
-6 4 -200 4 -431 l-1 -419 -38 -8 c-43 -9 -88 -31 -111 -53 -14 -15 -30 -3
-173 127 -87 78 -163 147 -169 153 -6 5 -51 46 -99 90 -49 44 -94 86 -101 93
-11 10 -9 19 11 48 45 67 67 142 67 229 0 44 -5 93 -12 109 -6 16 -7 33 -3 37
7 6 107 50 307 135 43 18 81 36 84 39 10 10 17 5 42 -30z m475 -111 c128 -121
378 -359 403 -383 13 -13 20 -26 14 -30 -12 -8 -32 -46 -39 -74 -9 -36 -5
-121 7 -153 10 -26 9 -31 -12 -48 -47 -37 -403 -266 -415 -266 -7 0 -22 9 -32
19 -33 33 -68 52 -118 65 l-48 12 0 429 0 428 46 11 c25 7 61 22 80 34 19 12
36 22 39 22 3 0 37 -30 75 -66z m1616 -169 c19 -10 35 -19 37 -20 2 -2 -2 -23
-8 -46 -7 -24 -14 -53 -16 -64 -6 -34 -102 -434 -132 -550 l-28 -110 -76 -2
c-96 -2 -163 -22 -233 -68 l-55 -37 -39 44 c-22 23 -48 52 -58 64 -10 12 -56
63 -103 114 -117 128 -112 118 -84 160 30 45 44 117 33 172 -12 64 -11 67 19
81 15 6 76 40 136 74 60 35 110 63 111 63 2 0 34 17 72 38 37 22 95 54 128 72
33 18 89 50 125 70 l65 36 36 -37 c20 -20 52 -45 70 -54z m-1092 -612 c52 -22
140 -19 197 7 l49 21 29 -33 c37 -42 190 -209 239 -261 41 -44 45 -58 21 -78
-20 -16 -45 -62 -65 -119 -20 -55 -4 -54 -254 -16 -55 8 -118 18 -140 21 -22
2 -51 7 -65 9 -14 3 -119 19 -235 36 -320 48 -288 38 -292 88 -2 24 -10 59
-18 77 l-14 34 120 78 c66 43 165 108 221 145 l102 66 35 -30 c19 -17 50 -37
70 -45z"/>
</g>
</svg>
